<svg width="24" height="24" fill="none" xmlns="http://www.w3.org/2000/svg"><path d="M12 24a12 12 0 100-24 12 12 0 000 24z" fill="#fff"/><g clip-path="url(#clip0)" fill="#0033AD"><path d="M7.7 12c0 .7.5 1.3 1.2 1.3.8 0 1.4-.6 1.4-1.3 0-.7-.6-1.3-1.3-1.3-.7 0-1.3.5-1.3 1.2zM3 11.6c-.3 0-.5.2-.5.4s.2.4.4.4.4-.1.4-.4c0-.2-.1-.4-.4-.4zM7.6 4.3c.2 0 .3-.3.2-.6a.4.4 0 00-.5-.1c-.3 0-.3.3-.2.5 0 .2.3.3.5.2zM9 6.6c.2-.1.4-.5.2-.8a.6.6 0 00-.8-.3c-.4.1-.5.5-.3.9.1.3.5.4.8.2zM4.6 8.2c.2.2.5.1.7-.1.1-.3 0-.6-.2-.8a.5.5 0 00-.7.2c-.2.2 0 .6.2.7zM5.3 11.4c-.3 0-.6.2-.6.6 0 .3.2.7.6.7.3 0 .6-.3.6-.6 0-.4-.2-.7-.6-.7zM4.6 15.8c-.2.1-.3.4-.2.7.1.3.4.4.7.2.3-.1.4-.4.2-.7a.5.5 0 00-.7-.2zM7.1 10c.4.2.8.1 1-.2.3-.4.2-.9-.2-1a.7.7 0 00-1 .1c-.2.4-.1.9.2 1.1zM15 6.6c.3.2.7.1.9-.2.2-.3 0-.7-.2-1a.6.6 0 00-.9.3c-.2.3-.1.7.2.9zM16.3 4.3c.2.1.4 0 .6-.1.1-.2 0-.5-.2-.6a.4.4 0 00-.5 0c-.1.3 0 .5.1.7zM15 10.7c-.6 0-1.2.5-1.3 1.2 0 .7.5 1.4 1.2 1.4h.1c.7 0 1.3-.6 1.3-1.3 0-.7-.5-1.3-1.2-1.3zM9.3 10c.3.4.7.6 1.2.6.7 0 1.3-.6 1.3-1.3 0-.2 0-.4-.2-.6-.3-.6-1-.9-1.7-.6-.6.4-.9 1.2-.6 1.8zM19.4 8.2c.2-.1.3-.4.2-.7a.5.5 0 00-.7-.2c-.3.1-.4.4-.2.7 0 .3.4.4.7.2zM16.1 8.7c-.3.1-.5.6-.3 1s.6.5 1 .3.5-.6.3-1a.7.7 0 00-1-.3zM12 4c.2.1.5-.1.5-.4 0-.3-.2-.6-.5-.6s-.5.2-.5.5.2.6.4.6zM12 7.5c.4 0 .7-.3.7-.8 0-.4-.3-.7-.7-.8-.4 0-.7.3-.8.8 0 .4.3.8.7.8zM7.9 15.3c.3-.1.5-.6.3-1a.7.7 0 00-1-.3c-.4.2-.5.6-.3 1 .1.4.6.5 1 .3zM12.4 8.6c-.4.6-.2 1.4.4 1.8.6.4 1.4.2 1.8-.4.4-.6.2-1.4-.4-1.8l-.7-.2c-.4 0-.8.2-1 .6zM14.7 14c-.4-.6-1.1-.8-1.8-.5-.6.3-.8 1.1-.5 1.8.3.6 1 .9 1.7.5.6-.3.9-1 .6-1.7zM16.9 14a.7.7 0 00-1 .2c-.3.4-.2.9.2 1 .3.3.8.2 1-.1.2-.4.1-.9-.2-1.1zM19.3 12c0-.3-.2-.6-.6-.7-.3 0-.6.3-.6.7 0 .3.2.6.6.6.3 0 .6-.2.6-.6zM21.1 11.6c-.2 0-.4.1-.4.4 0 .2.1.4.4.4a.4.4 0 000-.8zM19.4 15.8a.5.5 0 00-.7.1c-.1.3 0 .6.2.8.2.1.5 0 .7-.2.2-.2 0-.6-.2-.7zM7.7 19.7a.4.4 0 00-.6.1c-.1.2 0 .5.1.6.2.2.5.1.6 0 .1-.3 0-.5-.1-.7zM16.4 19.7c-.2 0-.3.3-.2.6 0 .2.3.2.5.1.3 0 .3-.3.2-.5a.4.4 0 00-.5-.2zM11.6 15.4c.4-.6.2-1.4-.4-1.8-.6-.4-1.4-.2-1.8.4-.4.6-.2 1.4.4 1.8l.7.2c.4 0 .8-.2 1-.6zM9 17.4a.6.6 0 00-.9.2c-.2.3 0 .7.2 1 .3.1.7 0 .9-.3.2-.3.1-.7-.2-.9zM12 20c-.3-.1-.5.1-.6.4 0 .3.2.6.5.6s.6-.2.6-.5-.2-.6-.5-.6zM12 16.5c-.4 0-.8.3-.8.8 0 .4.3.7.7.8.4 0 .8-.3.8-.8 0-.4-.3-.8-.7-.8zM15 17.4c-.2.1-.4.5-.2.8.2.4.5.5.9.3.3-.1.4-.5.2-.9a.6.6 0 00-.8-.2z"/></g><defs><clipPath id="clip0"><path fill="#fff" transform="translate(2.5 3)" d="M0 0h19v18H0z"/></clipPath></defs></svg>