<svg width="24" height="24" fill="none" xmlns="http://www.w3.org/2000/svg"><path d="M12 24c6.627 0 12-5.373 12-12S18.627 0 12 0 0 5.373 0 12s5.373 12 12 12Z" fill="#fff"/><path d="M12.08 4C8.729 4.013 6.014 6.72 6 10.061c0 .67.108 1.334.32 1.969a.87.87 0 0 0 1.07.531.862.862 0 0 0 .517-1.062 3.987 3.987 0 0 1-.237-1.545 4.38 4.38 0 0 1 4.517-4.239 4.378 4.378 0 0 1 4.252 4.502 4.38 4.38 0 0 1-4.118 4.232s-.854.052-1.278.104a4.457 4.457 0 0 0-.465.092.056.056 0 0 1-.08 0 .055.055 0 0 1 0-.068l.132-.718.801-3.594a.833.833 0 0 0-1.63-.348s-1.906 8.797-1.906 8.877a.798.798 0 0 0 .593.974h.044a.801.801 0 0 0 .976-.573l.005-.022a.205.205 0 0 1 0-.04c.024-.103.265-1.274.265-1.274a2.16 2.16 0 0 1 1.79-1.697c.184-.028.957-.08.957-.08 3.34-.332 5.778-3.3 5.444-6.629A6.069 6.069 0 0 0 12.08 4Z" fill="#1E1E1E"/><path d="M12.45 17.976a1.013 1.013 0 0 0-1.2.783l-.002.015a1.006 1.006 0 0 0 .77 1.197h.031a.993.993 0 0 0 1.199-.73l.003-.011v-.056a1.048 1.048 0 0 0-.802-1.198Z" fill="#E6007A"/></svg>