<svg fill="none" height="32" viewBox="0 0 32 32" width="32" xmlns="http://www.w3.org/2000/svg" xmlns:xlink="http://www.w3.org/1999/xlink"><linearGradient id="a"><stop offset="0" stop-color="#00ffa3"/><stop offset="1" stop-color="#dc1fff"/></linearGradient><linearGradient id="b" gradientUnits="userSpaceOnUse" x1="24.6909" x2="12.9106" xlink:href="#a" y1="5.59127" y2="28.1553"/><linearGradient id="c" gradientUnits="userSpaceOnUse" x1="19.5399" x2="7.75964" xlink:href="#a" y1="2.90219" y2="25.4662"/><linearGradient id="d" gradientUnits="userSpaceOnUse" x1="22.099" x2="10.3188" xlink:href="#a" y1="4.23813" y2="26.8021"/><path d="m16 32c8.8366 0 16-7.1634 16-16 0-8.83656-7.1634-16-16-16-8.83656 0-16 7.16344-16 16 0 8.8366 7.16344 16 16 16z" fill="#000"/><path d="m8.80201 20.3581c.12871-.1287.30568-.2038.49338-.2038h17.02161c.311 0 .4665.3754.2467.5953l-3.3625 3.3625c-.1287.1287-.3057.2037-.4934.2037h-17.02159c-.31104 0-.46656-.3754-.24669-.5952z" fill="url(#b)"/><path d="m8.80201 7.80388c.13407-.1287.31104-.20378.49338-.20378h17.02161c.311 0 .4665.37539.2467.59527l-3.3625 3.36253c-.1287.1287-.3057.2037-.4934.2037h-17.02159c-.31104 0-.46656-.3754-.24669-.5952z" fill="url(#c)"/><path d="m23.2012 14.0407c-.1287-.1287-.3057-.2038-.4934-.2038h-17.02159c-.31104 0-.46656.3754-.24669.5953l3.36249 3.3625c.12871.1287.30568.2038.49338.2038h17.02161c.311 0 .4665-.3754.2467-.5953z" fill="url(#d)"/></svg>